<?xml version="1.0" standalone="no"?><!DOCTYPE svg PUBLIC "-//W3C//DTD SVG 1.1//EN" "http://www.w3.org/Graphics/SVG/1.1/DTD/svg11.dtd"><svg t="1621862013512" class="icon" viewBox="0 0 1024 1024" version="1.1" xmlns="http://www.w3.org/2000/svg" p-id="3642" xmlns:xlink="http://www.w3.org/1999/xlink" width="128" height="128"><defs><style type="text/css"></style></defs><path d="M340.195556 68.266667H122.88C68.266667 68.266667 22.755556 110.364444 22.755556 164.977778V386.844444c0 55.751111 44.373333 96.711111 96.711111 96.711112h220.728889c55.751111 0 96.711111-44.373333 96.711111-96.711112V164.977778c0-54.613333-40.96-96.711111-96.711111-96.711111z m632.604444 138.808889L816.924444 51.2c-37.546667-37.546667-100.124444-37.546667-137.671111 0L523.377778 207.075556c-17.066667 17.066667-27.306667 40.96-27.306667 69.404444 0 27.306667 10.24 52.337778 27.306667 69.404444L679.253333 500.622222c17.066667 17.066667 40.96 27.306667 69.404445 27.306667 27.306667 0 52.337778-10.24 69.404444-27.306667l155.875556-155.875555c17.066667-17.066667 27.306667-40.96 27.306666-69.404445 2.275556-27.306667-7.964444-51.2-28.444444-68.266666zM340.195556 587.093333H122.88c-55.751111 0-96.711111 44.373333-96.711111 96.711111v220.728889c0 55.751111 44.373333 96.711111 96.711111 96.711111h217.315556c55.751111 0 96.711111-44.373333 96.711111-96.711111V683.804444c0-55.751111-40.96-96.711111-96.711111-96.711111z m518.826666 0H638.293333c-55.751111 0-96.711111 44.373333-96.711111 96.711111v220.728889c0 55.751111 44.373333 96.711111 96.711111 96.711111h220.728889c55.751111 0 96.711111-44.373333 96.711111-96.711111V683.804444c0-55.751111-42.097778-96.711111-96.711111-96.711111z m0 0" p-id="3643"></path></svg>