<?xml version="1.0" standalone="no"?><!DOCTYPE svg PUBLIC "-//W3C//DTD SVG 1.1//EN" "http://www.w3.org/Graphics/SVG/1.1/DTD/svg11.dtd"><svg t="1621765455887" class="icon" viewBox="0 0 1024 1024" version="1.1" xmlns="http://www.w3.org/2000/svg" p-id="3523" xmlns:xlink="http://www.w3.org/1999/xlink" width="128" height="128"><defs><style type="text/css"></style></defs><path d="M177.135557 945.230769c0 43.52 74.948923 78.769231 167.384615 78.769231s167.384615-35.268923 167.384616-78.769231-74.948923-78.769231-167.384616-78.769231S177.135557 901.730462 177.135557 945.230769z" fill="#FFBD14" p-id="3524"></path><path d="M349.817403 1009.939692c-92.632615 0-167.699692-35.190154-167.699692-78.611692 0.059077-1.949538 0.256-3.879385 0.610461-5.789538-3.544615 6.006154-5.454769 12.839385-5.592615 19.830153C177.135557 988.790154 252.222326 1024 344.835249 1024c88.457846 0 160.748308-32.019692 167.069539-72.841846-18.747077 33.792-84.086154 58.781538-162.087385 58.781538z" fill="#EF9E0D" p-id="3525"></path><path d="M511.904788 945.230769c0 43.52 74.948923 78.769231 167.384615 78.769231s167.384615-35.268923 167.384615-78.769231-74.929231-78.769231-167.384615-78.769231-167.384615 35.268923-167.384615 78.769231z" fill="#FFBD14" p-id="3526"></path><path d="M673.992172 1009.939692c92.632615 0 167.699692-35.190154 167.699693-78.611692a39.522462 39.522462 0 0 0-0.610462-5.789538c3.544615 6.006154 5.454769 12.839385 5.592615 19.830153C846.674018 988.790154 771.587249 1024 678.974326 1024c-88.457846 0-160.748308-32.019692-167.069538-72.841846 18.707692 33.792 84.086154 58.781538 162.087384 58.781538z" fill="#EF9E0D" p-id="3527"></path><path d="M875.346018 494.749538l-36.745846-115.987692C838.600172 1.28 527.973711 0 511.904788 0 495.205711 0 185.209403 1.240615 185.209403 378.781538l-36.745846 115.968s-124.790154 153.993846-40.625231 288c9.432615 6.419692 10.161231 29.971692 60.947692-75.559384 48.049231 143.872 186.486154 240.384 341.405539 238.001231h3.426461c154.919385 2.382769 293.356308-94.109538 341.425231-237.961847 50.806154 105.491692 51.830154 84.125538 60.947693 75.559385 84.145231-134.065231-40.644923-288.039385-40.644924-288.039385z" fill="#121214" p-id="3528"></path><path d="M520.510326 246.094769c0 48.955077 28.908308 88.556308 64.590769 88.674462C620.803249 334.887385 649.750942 295.128615 649.750942 246.212923c0-48.955077-28.908308-88.556308-64.59077-88.674461-35.682462-0.118154-64.630154 39.640615-64.649846 88.556307z m-166.124308 0c0 48.955077 28.908308 88.556308 64.59077 88.674462 35.682462 0.118154 64.630154-39.640615 64.649846-88.556308 0-48.955077-28.908308-88.556308-64.610462-88.674461C383.314018 157.420308 354.366326 197.179077 354.366326 246.094769h0.019692z" fill="#FFFFFF" p-id="3529"></path><path d="M393.750942 246.153846c0 27.175385 17.644308 49.230769 39.384615 49.230769s39.384615-22.134154 39.384615-49.230769-17.644308-49.230769-39.384615-49.230769-39.384615 22.055385-39.384615 49.230769z" fill="#161616" p-id="3530"></path><path d="M540.557095 275.692308c-4.233846 0-7.798154-2.894769-8.231384-6.695385-0.531692-4.430769-4.588308-43.874462 14.217846-62.542769A35.406769 35.406769 0 0 1 571.021095 196.923077c9.255385 0 18.116923 3.446154 24.457847 9.531077 18.707692 18.569846 14.690462 58.112 14.178461 62.542769a6.951385 6.951385 0 0 1-2.717538 4.923077 8.566154 8.566154 0 0 1-5.809231 1.772308h-0.590769a8.605538 8.605538 0 0 1-5.592616-2.756923 6.951385 6.951385 0 0 1-1.772307-5.513847c2.875077-17.545846-0.630154-35.446154-10.023385-51.062153a17.112615 17.112615 0 0 0-11.283692-4.864 17.486769 17.486769 0 0 0-13.056 4.864 74.633846 74.633846 0 0 0-10.043077 51.062153c0.256 1.969231-0.393846 3.938462-1.772308 5.513847a8.566154 8.566154 0 0 1-6.439385 2.756923z" fill="#181818" p-id="3531"></path><path d="M433.135557 246.153846a9.846154 9.846154 0 1 0 19.692308 0 9.846154 9.846154 0 0 0-19.692308 0z" fill="#FFFFFF" p-id="3532"></path><path d="M671.944172 368.836923a491.165538 491.165538 0 0 0-359.483077 0c-26.387692 8.881231-36.864 15.793231-36.864 24.201846 0 8.388923 66.717538 57.757538 137.924923 87.847385 33.457231 16.777846 43.323077 31.113846 78.690462 31.113846 35.367385 0 45.193846-14.296615 78.690462-31.113846C642.110326 450.776615 708.827865 401.408 708.827865 393.038769c0-8.388923-10.496-15.281231-36.883693-24.201846z" fill="#FAB718" p-id="3533"></path><path d="M334.674018 413.538462a310.350769 310.350769 0 0 0 164.745847 50.924307A340.676923 340.676923 0 0 0 669.443249 413.538462s-56.674462 38.242462-100.371692 64.630153C525.354634 504.576 519.584788 512 497.490018 512c-22.055385 0-50.432-27.411692-63.172923-33.831385-12.721231-6.4-47.773538-32.748308-99.643077-64.630153z" fill="#8C2B01" p-id="3534"></path><path d="M774.285095 452.923077C668.379865 544.768 521.750942 534.331077 521.750942 534.331077s-146.648615 10.436923-252.534154-81.408c0 0-100.824615 472.615385 252.534154 472.615385 353.378462 0 252.534154-472.615385 252.534153-472.615385z" fill="#F9F9F9" p-id="3535"></path><path d="M849.174942 374.153846s-89.659077 164.726154-327.424 164.726154C283.966326 538.88 194.267865 374.153846 194.267865 374.153846 156.478326 480.334769 157.443249 495.123692 157.443249 495.123692a455.542154 455.542154 0 0 0 129.181539 101.927385c-3.150769 35.406769-7.483077 89.856-7.030154 117.622154 0.708923 43.185231 26.486154 46.158769 86.331077 52.105846 59.825231 5.947077 47.537231-10.436923 47.537231-37.947077v-86.961231c35.584 7.483077 72.014769 10.200615 108.307692 8.073846A456.881231 456.881231 0 0 0 886.058634 495.123692s0.925538-14.788923-36.883692-120.969846z" fill="#E32B10" p-id="3536"></path></svg>