<?xml version="1.0" standalone="no"?><!DOCTYPE svg PUBLIC "-//W3C//DTD SVG 1.1//EN" "http://www.w3.org/Graphics/SVG/1.1/DTD/svg11.dtd"><svg t="1622044302496" class="icon" viewBox="0 0 1024 1024" version="1.1" xmlns="http://www.w3.org/2000/svg" p-id="3944" xmlns:xlink="http://www.w3.org/1999/xlink" width="128" height="128"><defs><style type="text/css"></style></defs><path d="M511.49954963 14.93747323c-275.11872602 0-498.19732679 223.03340974-498.19732679 498.17222052 0 275.13546309 223.07692693 498.16719901 498.19732679 498.16719899s498.14376656-223.0317359 498.14376656-498.16719899c0-275.13881077-223.02336671-498.17222052-498.14376656-498.17222052zM737.4569951 569.47645327H515.76760348c-30.59441199 0-55.42444052-24.83002853-55.42444054-55.42276669V292.3442102c0-30.59273815 24.83002853-55.42276669 55.42444054-55.4227654 30.59441199 0 55.42444052 24.83002853 55.42443923 55.4227654v166.28168947h166.26662623c30.59441199 0 55.42444052 24.83002853 55.42443923 55.42778691-0.00167385 30.59106431-24.83002853 55.42276669-55.42611307 55.42276669z" p-id="3945"></path></svg>