<?xml version="1.0" standalone="no"?><!DOCTYPE svg PUBLIC "-//W3C//DTD SVG 1.1//EN" "http://www.w3.org/Graphics/SVG/1.1/DTD/svg11.dtd"><svg t="1621765469752" class="icon" viewBox="0 0 1024 1024" version="1.1" xmlns="http://www.w3.org/2000/svg" p-id="4350" xmlns:xlink="http://www.w3.org/1999/xlink" width="128" height="128"><defs><style type="text/css"></style></defs><path d="M84.059429 512a436.333714 427.940571 0 1 0 872.667428 0 436.333714 427.940571 0 1 0-872.667428 0Z" fill="#FFFFFF" p-id="4351"></path><path d="M579.565714 511.579429a24.630857 24.630857 0 0 0-23.350857 24.192 24.265143 24.265143 0 0 0 23.350857 21.686857c17.517714 0 30.025143-10.843429 30.025143-21.686857a27.008 27.008 0 0 0-30.025143-24.192z m-76.8-112.621715a27.812571 27.812571 0 0 0 30.025143-29.257143 27.428571 27.428571 0 0 0-30.025143-29.257142 31.341714 31.341714 0 0 0-34.194285 29.257142 31.908571 31.908571 0 0 0 34.194285 29.257143zM512 0a512 512 0 1 0 512 512 512 512 0 0 0-512-512z m-96.768 641.718857a275.894857 275.894857 0 0 1-82.578286-13.348571l-84.260571 42.550857 24.192-71.753143c-59.227429-41.709714-94.262857-94.262857-94.262857-158.500571 0-113.371429 106.770286-200.210286 236.909714-200.210286 115.2 0 217.728 68.406857 237.714286 165.174857a115.748571 115.748571 0 0 0-22.528-2.505143c-113.371429 0-201.033143 85.083429-201.033143 187.684572a201.142857 201.142857 0 0 0 6.674286 50.048 175.414857 175.414857 0 0 1-20.864 0.822857z m347.867429 81.737143l16.676571 60.068571-63.396571-35.876571a359.68 359.68 0 0 1-71.734858 12.507429c-111.780571 0-200.210286-76.8-200.210285-171.885715s88.429714-171.885714 200.210285-171.885714c105.947429 0 201.033143 76.8 201.033143 171.885714 0 53.376-35.876571 100.937143-82.578285 135.131429z m-425.508572-382.884571a32.914286 32.914286 0 0 0-35.876571 29.257142 33.517714 33.517714 0 0 0 35.876571 29.147429 28.708571 28.708571 0 0 0 30.025143-29.257143 28.233143 28.233143 0 0 0-30.025143-29.147428z m373.028572 171.008a24.045714 24.045714 0 0 0-23.350858 24.192 23.625143 23.625143 0 0 0 23.350858 21.686857 26.788571 26.788571 0 0 0 29.257142-21.686857 26.715429 26.715429 0 0 0-29.257142-24.192z m0 0z" fill="#09BB07" p-id="4352"></path></svg>